<?xml version="1.0" standalone="no"?>
<!DOCTYPE svg PUBLIC "-//W3C//DTD SVG 20010904//EN"
 "http://www.w3.org/TR/2001/REC-SVG-20010904/DTD/svg10.dtd">
<svg version="1.0" xmlns="http://www.w3.org/2000/svg"
 width="924.000000pt" height="281.000000pt" viewBox="0 0 924.000000 281.000000"
 preserveAspectRatio="xMidYMid meet">

<g transform="translate(0.000000,281.000000) scale(0.100000,-0.100000)"
fill="#000000" stroke="none">
<path fill="#042071" d="M71 2718 c-38 -160 -61 -317 -61 -409 l0 -88 33 5 c17 4 131 30 252
59 121 29 236 56 255 60 19 3 100 22 180 40 262 62 701 163 940 218 129 29
371 85 538 123 l302 69 -402 6 c-222 4 -766 7 -1209 8 l-806 1 -22 -92z"/>
<path fill="#042071" d="M3320 2800 l-106 -5 -99 -59 c-55 -33 -163 -100 -240 -149 -131 -84
-461 -285 -1135 -692 -534 -322 -1195 -731 -1338 -827 -70 -47 -73 -51 -67
-81 9 -48 117 -260 181 -357 72 -108 154 -217 208 -277 l43 -47 34 28 c19 16
142 129 274 251 286 264 381 351 580 530 83 74 205 186 272 248 67 61 182 166
255 231 73 66 176 161 228 210 52 50 156 146 230 212 74 67 209 190 300 273
144 131 193 172 177 144 -63 -108 -1349 -2397 -1353 -2408 -6 -14 43 -15 472
-13 l478 3 597 1390 c329 764 597 1390 596 1391 -6 5 -498 8 -587 4z"/>
<path fill="#042071" d="M2700 2760 c-201 -62 -490 -147 -591 -175 -52 -13 -161 -45 -244 -70
-82 -25 -260 -77 -395 -115 -135 -39 -258 -75 -275 -81 -34 -13 -221 -68 -335
-100 -41 -11 -138 -41 -214 -65 -77 -25 -185 -56 -240 -70 -144 -36 -336 -94
-370 -111 l-29 -15 6 -96 c6 -118 58 -324 126 -504 5 -15 18 -12 116 30 61 25
270 126 465 223 326 161 499 251 960 494 415 219 994 513 1123 569 78 35 169
77 202 94 l60 31 -120 0 c-111 0 -129 -3 -245 -39z"/>
<path fill="#042071" d="M4238 1389 l-534 -634 100 -3 101 -3 39 43 c21 24 151 176 289 338
315 371 448 522 455 516 2 -3 55 -204 117 -448 l112 -443 92 -3 c85 -3 92 -1
87 15 -3 10 -73 290 -156 623 -84 333 -155 611 -159 619 -6 9 -171 -180 -543
-620z"/>
<path fill="#042071" d="M5135 2008 c-2 -7 -8 -37 -13 -65 l-9 -53 284 0 c266 0 284 -1 279
-17 -3 -10 -59 -261 -126 -558 -66 -297 -123 -546 -125 -553 -4 -10 13 -12 73
-10 l77 3 21 85 c21 81 65 274 140 605 19 83 48 204 64 270 16 66 31 131 32
145 l3 25 292 3 292 2 11 58 c7 31 14 60 17 65 2 4 -291 7 -652 7 -516 0 -657
-3 -660 -12z"/>
<path fill="#042071" d="M6696 1948 c-9 -40 -76 -327 -149 -638 l-133 -565 375 -3 c279 -2
377 1 382 10 4 6 10 31 14 56 4 24 9 51 12 58 4 12 -44 14 -291 14 -248 0
-298 2 -302 14 -3 8 16 100 42 205 l48 191 290 2 290 3 7 35 c4 19 9 50 13 68
l6 32 -285 0 -285 0 0 24 c0 13 16 85 35 160 19 75 35 145 35 154 0 31 20 91
36 107 13 13 57 15 294 15 l278 0 11 48 c7 26 14 55 17 65 5 16 -17 17 -359
17 l-365 0 -16 -72z"/>
<path fill="#042071" d="M7759 2018 c0 -2 -65 -286 -143 -633 l-142 -630 74 -3 c41 -2 77 -1
79 2 3 3 27 105 54 227 27 123 52 226 56 230 5 4 96 9 204 11 l195 3 80 39
c106 52 226 170 275 271 32 65 34 76 34 170 0 84 -4 107 -23 142 -31 58 -87
111 -152 142 -54 26 -58 26 -322 29 -148 2 -268 2 -269 0z m510 -163 c19 -11
48 -37 65 -58 28 -35 31 -45 31 -110 0 -60 -5 -82 -30 -132 -34 -69 -113 -153
-167 -178 -30 -14 -67 -17 -217 -17 -100 0 -181 2 -181 4 0 8 110 491 115 504
4 11 41 13 178 10 150 -3 176 -6 206 -23z"/>
<path fill="#042071" d="M8987 2013 c-14 -26 -51 -157 -76 -273 -66 -300 -143 -633 -179 -770
-22 -80 -42 -166 -46 -192 l-7 -48 65 0 c80 0 88 9 116 131 103 434 260 1129
260 1147 0 13 -125 18 -133 5z"/>
</g>
</svg>
